<mxfile host="app.diagrams.net" modified="2024-02-23T03:10:56.597Z" agent="Mozilla/5.0 (Macintosh; Intel Mac OS X 10_15_7) AppleWebKit/537.36 (KHTML, like Gecko) Chrome/121.0.0.0 Safari/537.36" version="23.1.6" etag="FB6h1rp4nIqqmfiDPdy6" type="github">
  <diagram name="Page-1" id="ndIM923gPcJ5BQjnzAou">
    <mxGraphModel>
      <root>
        <mxCell id="0" />
        <mxCell id="1" parent="0" />
      </root>
    </mxGraphModel>
  </diagram>
</mxfile>
